PathFileType	4	(X/Y/Z)	2014001\dynamic\2014001_C3_05.trc
DataRate	CameraRate	NumFrames	NumMarkers	Units	OrigDataRate	OrigDataStartFrame	OrigNumFrames
100.000000	100.000000	4	52	mm	100.000000	107	172
Frame#	Time	L_IAS			L_IPS			R_IPS			R_IAS			L_FTC			L_FLE			L_FME			L_FAX			L_TTC			L_FAL			L_TAM			L_FCC			L_FM1			L_FM2			L_FM5			R_FTC			R_FLE			R_FME			R_FAX			R_TTC			R_FAL			R_TAM			R_FCC			R_FM1			R_FM2			R_FM5			CV7			TV10			SXS			SJN			L_SIA			L_SRS			L_SAA			L_SAE			L_HLE			L_HME			L_UOA			L_RSP			L_UHE			L_HM2			L_HM5			R_SIA			R_SRS			R_SAA			R_SAE			R_HLE			R_HME			R_UOA			R_RSP			R_UHE			R_HM2			R_HM5			
		X1	Y1	Z1	X2	Y2	Z2	X3	Y3	Z3	X4	Y4	Z4	X5	Y5	Z5	X6	Y6	Z6	X7	Y7	Z7	X8	Y8	Z8	X9	Y9	Z9	X10	Y10	Z10	X11	Y11	Z11	X12	Y12	Z12	X13	Y13	Z13	X14	Y14	Z14	X15	Y15	Z15	X16	Y16	Z16	X17	Y17	Z17	X18	Y18	Z18	X19	Y19	Z19	X20	Y20	Z20	X21	Y21	Z21	X22	Y22	Z22	X23	Y23	Z23	X24	Y24	Z24	X25	Y25	Z25	X26	Y26	Z26	X27	Y27	Z27	X28	Y28	Z28	X29	Y29	Z29	X30	Y30	Z30	X31	Y31	Z31	X32	Y32	Z32	X33	Y33	Z33	X34	Y34	Z34	X35	Y35	Z35	X36	Y36	Z36	X37	Y37	Z37	X38	Y38	Z38	X39	Y39	Z39	X40	Y40	Z40	X41	Y41	Z41	X42	Y42	Z42	X43	Y43	Z43	X44	Y44	Z44	X45	Y45	Z45	X46	Y46	Z46	X47	Y47	Z47	X48	Y48	Z48	X49	Y49	Z49	X50	Y50	Z50	X51	Y51	Z51	X52	Y52	Z52	

108	1.07	380.9125366210939	851.549194335938	1095.32421875	296.901092529297	895.6989746093755	922.430297851563	207.2377777099611	889.776000976563	922.7062377929692	142.7382354736329	861.7421264648442	1102.70556640625	436.0404052734377	776.4745483398442	1002.250122070313	388.4125061035159	434.3311462402346	909.8141479492192	277.3554077148439	421.8012695312502	935.0714721679692	390.717956542969	380.1260681152345	874.8774414062505	344.7150268554689	345.397430419922	928.238891601563	337.9208068847657	76.88858795166018	763.1867675781252	250.9331207275392	83.81885528564456	787.9713745117192	291.981170654297	46.65517807006837	713.7255859375002	275.1804809570314	26.76767539978029	894.8359375000005	337.232635498047	35.77077102661134	901.0310668945317	379.4979858398439	24.63319015502931	843.0971679687505	78.20745086669925	761.4132080078127	1018.818908691407	97.28144836425787	439.7866516113284	1170.014282226563	216.3842163085939	432.6938171386721	1197.676391601563	94.04898834228518	376.9017333984376	1179.803466796875	135.7072906494141	396.6266784667971	1247.9912109375	125.8318634033204	83.85282897949222	1306.157104492188	202.4599151611329	120.7378005981446	1341.955078125	187.6453857421876	28.52291679382326	1299.38818359375	170.7801666259766	119.7933044433594	1461.126708984375	114.9380035400391	122.822135925293	1447.560546875	83.79003906250003	79.47522735595706	1408.677734375	251.6850433349611	1359.890258789063	967.5963745117192	267.5390625000001	1130.395874023438	902.8860473632817	253.7890472412111	1132.185913085938	1138.997680664063	244.2271575927736	1294.98583984375	1096.23583984375	368.4447326660157	1175.511596679688	912.252563476563	348.5968322753907	1304.231323242188	935.504516601563	447.8666687011721	1309.372680664063	1024.281616210938	422.8213195800784	1319.106567382813	1060.427734375	527.787048339844	1048.13720703125	1101.1171875	463.6896972656252	998.8040161132817	1072.8271484375	514.0678710937502	997.9402465820317	1079.382080078125	436.4561767578127	895.887817382813	1282.999877929688	509.8589477539065	869.010620117188	1267.371704101563	424.7893371582034	848.5429077148442	1354.901977539063	503.1287536621096	802.5549316406255	1308.6484375	165.7694702148438	1165.750366210938	884.478149414063	176.7473144531251	1287.756591796875	917.745239257813	65.38334655761722	1283.700561523438	975.3152465820317	67.06469726562503	1287.27587890625	1026.672973632813	24.55908012390138	994.283325195313	923.9977416992192	105.1862258911133	984.1713256835942	913.1140136718755	61.21508407592776	979.6293334960942	897.8762817382817	38.26499938964845	770.7190551757817	973.8536987304692	-9.856302261352543	782.1813964843755	909.104125976563	20.96647262573243	675.2629394531252	973.6564331054692	-4.840157508850099	707.8423461914065	880.2412719726567	
109	1.08	380.4864807128907	849.9802856445317	1107.456420898438	295.2913208007814	893.7732543945317	934.875854492188	205.7687835693361	887.6161499023442	935.360229492188	142.1441192626954	859.798950195313	1115.697021484375	435.593444824219	775.4308471679692	1013.607177734375	388.3804931640627	434.3689575195315	917.9152832031255	277.3581848144532	421.286071777344	943.4067382812505	390.733825683594	380.6140136718751	882.1660156250005	344.9400939941407	344.8487243652345	934.9414672851567	338.683319091797	79.38121032714847	764.3794555664065	251.6563568115236	85.89890289306643	788.9707031250005	292.8283691406251	50.18867874145511	714.2004394531252	275.4636230468751	26.93708610534669	895.0834350585942	337.5126037597657	35.7560501098633	901.564819335938	379.6914367675782	24.5552444458008	843.5025024414067	77.40665435791018	759.323669433594	1032.212280273438	97.70801544189459	438.4737548828127	1184.185424804688	216.8726043701173	431.8896789550784	1211.285400390625	94.61920928955081	375.5032653808595	1194.210815429688	136.6284790039063	395.6980590820315	1262.179443359375	127.2993850708008	83.04554748535159	1321.34130859375	204.1078643798829	120.0571670532227	1356.712890625	189.0999603271485	28.08071136474611	1314.056518554688	173.2613830566407	119.4280395507813	1475.95166015625	117.2700729370118	122.0435104370118	1462.938598632813	86.15366363525393	78.37353515625003	1424.436889648438	250.4404754638673	1357.982543945313	980.0925292968755	266.2815856933595	1128.59765625	915.1669921875005	252.3050689697267	1130.031005859375	1151.142822265625	242.6909484863282	1292.861938476563	1108.679565429688	367.1235656738282	1173.710083007813	924.713012695313	347.3878479003907	1302.549682617188	948.1393432617192	446.4449157714846	1307.129638671875	1037.219116210938	421.2837524414065	1316.78662109375	1073.324096679688	526.2688598632815	1045.928100585938	1113.826171875	462.2530822753909	996.5421752929692	1085.492431640625	512.5693359375002	995.640258789063	1092.139770507813	434.246520996094	894.522583007813	1295.954345703125	507.6215820312502	867.4105834960942	1280.649658203125	422.362731933594	847.676879882813	1368.084716796875	500.6045532226565	801.1887817382817	1322.234741210938	164.8244628906251	1163.70751953125	896.7247924804692	175.6403961181641	1285.8759765625	930.0185546875005	64.09767150878909	1281.719116210938	987.2239379882817	65.62713623046878	1285.295288085938	1038.630004882813	23.69853210449219	992.199340820313	935.7292480468755	104.3861312866212	982.1789550781255	925.0935058593755	60.46821212768558	977.658081054688	909.6974487304692	37.46963500976564	768.582153320313	985.1045532226567	-10.51829242706299	780.1445312500005	920.3007812500005	20.33522033691407	673.0856933593752	984.5663452148442	-5.363150119781496	705.9277343750002	891.2363281250005	
110	1.09	379.9858398437501	848.5079956054692	1119.945434570313	293.6582336425782	892.0042114257817	947.6559448242192	204.2651519775392	885.6747436523442	948.3270874023442	141.4582672119141	858.202270507813	1129.011108398438	434.9917297363284	774.4257202148442	1025.341796875	388.3777770996096	434.4574890136721	926.6267089843755	277.3225402832032	420.7855529785159	952.2866821289067	390.7760314941409	381.1796875000001	890.0122070312505	345.2042541503907	344.3316650390626	942.146606445313	339.5669250488282	82.23194122314456	765.7579345703127	252.4976806640626	88.31693267822268	790.1981811523442	293.7556457519532	54.18412017822268	714.822204589844	275.7406005859376	27.06947135925294	895.3479003906255	337.8089904785157	35.70687866210939	902.1351928710942	379.8643188476564	24.46862411499025	843.9533081054692	76.47149658203128	757.6119384765627	1046.043701171875	98.05409240722662	437.5440063476565	1198.859375	217.1885528564454	431.4526977539065	1225.296264648438	95.07652282714847	374.3673095703126	1208.7578125	137.5691986083985	394.6321716308596	1276.531860351563	128.8202514648438	81.69852447509768	1333.957885742188	205.9055023193361	118.4011611938477	1369.173583984375	190.5795593261719	27.28162574768068	1325.536865234375	175.7916412353516	117.0497970581055	1488.320678710938	119.6391677856446	119.418800354004	1475.841674804688	88.58023834228518	75.84053802490237	1437.35888671875	249.0538330078126	1356.21630859375	992.6221313476567	264.9046936035157	1126.862548828125	927.6354980468755	250.7296752929689	1128.098876953125	1163.409545898438	241.0530395507814	1290.922241210938	1121.182250976563	365.6463317871095	1172.02294921875	937.2265625000005	346.0299377441407	1300.974365234375	960.7796020507817	444.9035949707034	1305.031494140625	1050.119262695313	419.6629638671877	1314.615966796875	1086.202758789063	524.630310058594	1043.784423828125	1126.262939453125	460.6617736816409	994.3883666992192	1097.867431640625	510.9246826171877	993.448120117188	1104.56005859375	432.1225280761721	892.8352661132817	1308.428955078125	505.4681091308596	865.5492553710942	1293.335083007813	420.0980224609377	846.3351440429692	1380.699829101563	498.2244873046877	799.4753417968755	1335.093994140625	163.7026367187501	1161.784790039063	909.0996704101567	174.3531799316407	1284.12158203125	942.3828735351567	62.65965652465823	1279.85791015625	999.2968139648442	64.07514953613284	1283.448974609375	1050.742065429688	22.71290397644044	990.186157226563	947.8269653320317	103.4536514282227	980.259887695313	937.4064941406255	59.58340072631839	975.750366210938	921.879760742188	36.58047485351564	766.5426025390627	996.8208618164067	-11.28570461273194	778.1640014648442	931.9538574218755	19.60946083068848	671.0071411132815	995.9862670898442	-5.972279548645021	704.0627441406252	902.720092773438	
111	1.1	379.3835754394532	847.1411132812505	1132.82861328125	292.0269470214845	890.4264526367192	960.7957153320317	202.7410125732423	883.9987792968755	961.6233520507817	140.6758117675782	856.981811523438	1142.662963867188	434.2256774902346	773.4669799804692	1037.490478515625	388.4201660156252	434.5995178222659	935.9638061523442	277.2646484375001	420.2752075195315	961.7502441406255	390.849060058594	381.8418273925782	898.4116821289067	345.5520324707032	343.8548889160157	949.8712768554692	340.5429992675782	85.47891998291018	767.3598632812502	253.4481201171876	91.08949279785159	791.748657226563	294.7044677734376	58.69266891479495	715.6728515625002	275.9941406250001	27.14735031127931	895.5967407226567	338.107635498047	35.60231399536134	902.6948242187505	379.994110107422	24.39717102050783	844.4262695312505	75.39864349365237	756.3133544921877	1060.30517578125	98.3124618530274	436.9949951171877	1213.974731445313	217.3399963378907	431.3530273437502	1239.619018554688	95.40041351318362	373.503875732422	1223.459838867188	138.5298919677735	393.4731750488284	1291.031127929688	130.3053283691407	79.8827819824219	1344.302368164063	207.7828063964845	115.8662033081055	1379.577880859375	191.9846496582032	26.19207191467287	1334.153686523438	178.3495635986329	112.7905349731446	1498.504760742188	122.007911682129	115.0747299194337	1486.566284179688	90.98558044433597	72.01293945312503	1447.745849609375	247.5265960693361	1354.614379882813	1005.166564941407	263.4097900390626	1125.20361328125	940.3026733398442	249.0643768310548	1126.439331054688	1175.822509765625	239.3190917968751	1289.205444335938	1133.73291015625	364.0091247558595	1170.454467773438	949.7966308593755	344.5224609375001	1299.514404296875	973.4096069335942	443.2500000000002	1303.110107421875	1062.955810546875	417.9687194824221	1312.636596679688	1099.036987304688	522.8799438476565	1041.747802734375	1138.417358398438	458.9216613769534	992.383666992188	1109.941162109375	509.1421203613284	991.4050292968755	1116.635375976563	430.093444824219	890.8499145507817	1320.409423828125	503.4127197265627	863.456909179688	1305.417114257813	417.9976501464846	844.5296020507817	1392.726684570313	496.0072937011721	797.4381713867192	1347.215209960938	162.3973846435547	1159.995849609375	921.614379882813	172.8859252929688	1282.507934570313	954.8332519531255	61.07313156127933	1278.145263671875	1011.535888671875	62.41418457031253	1281.768310546875	1063.009521484375	21.60111618041993	988.276977539063	960.2939453125005	102.3864822387696	978.4487304687505	950.0487670898442	58.55693054199222	973.9387207031255	934.4233398437505	35.6046600341797	764.6303710937502	1009.015258789063	-12.16140270233155	776.2717895507817	944.0749511718755	18.79199600219727	669.0625610351565	1007.931640625	-6.678783893585209	702.2752075195315	914.7094726562505	
